<mxfile host="app.diagrams.net" modified="2023-08-21T12:14:46.147Z" agent="Mozilla/5.0 (X11; Ubuntu; Linux x86_64; rv:105.0) Gecko/20100101 Firefox/105.0" etag="3e1Jk0uAVsVmiWWZSNpf" version="21.6.8" type="device">
  <diagram name="Page-1" id="aGrNsAUD6rLRG3-fpc4p">
    <mxGraphModel dx="1608" dy="884" grid="1" gridSize="10" guides="1" tooltips="1" connect="1" arrows="1" fold="1" page="1" pageScale="1" pageWidth="850" pageHeight="1100" math="0" shadow="0">
      <root>
        <mxCell id="0" />
        <mxCell id="1" parent="0" />
        <mxCell id="GqmXSSIizeDQHD-2Bpkm-38" value="" style="rounded=0;whiteSpace=wrap;html=1;strokeWidth=2;fillColor=none;" parent="1" vertex="1">
          <mxGeometry x="4.5" y="130" width="835.5" height="950" as="geometry" />
        </mxCell>
        <mxCell id="Dw3qF6tHwgRVVZFkppPR-85" value="" style="rounded=0;whiteSpace=wrap;html=1;strokeWidth=3;fillColor=#d5e8d4;strokeColor=default;" parent="1" vertex="1">
          <mxGeometry x="80" y="160" width="240" height="320" as="geometry" />
        </mxCell>
        <mxCell id="Dw3qF6tHwgRVVZFkppPR-86" value="&lt;font style=&quot;font-size: 24px;&quot;&gt;Size&lt;br&gt;&lt;/font&gt;" style="rounded=0;whiteSpace=wrap;html=1;strokeWidth=3;fillColor=#dae8fc;strokeColor=default;" parent="1" vertex="1">
          <mxGeometry x="80" y="160" width="240" height="50" as="geometry" />
        </mxCell>
        <mxCell id="Dw3qF6tHwgRVVZFkppPR-88" value="&lt;div&gt;&lt;font style=&quot;font-size: 24px;&quot;&gt;Payload&lt;/font&gt;&lt;/div&gt;&lt;div&gt;&lt;font style=&quot;font-size: 24px;&quot;&gt;and &lt;br&gt;&lt;/font&gt;&lt;/div&gt;&lt;div&gt;&lt;font style=&quot;font-size: 24px;&quot;&gt;Padding&lt;br&gt;&lt;/font&gt;&lt;/div&gt;" style="text;html=1;strokeColor=none;fillColor=none;align=center;verticalAlign=middle;whiteSpace=wrap;rounded=0;" parent="1" vertex="1">
          <mxGeometry x="130" y="230" width="140" height="140" as="geometry" />
        </mxCell>
        <mxCell id="Dw3qF6tHwgRVVZFkppPR-89" value="" style="rounded=0;whiteSpace=wrap;html=1;strokeWidth=3;fillColor=#d5e8d4;strokeColor=default;" parent="1" vertex="1">
          <mxGeometry x="480" y="160" width="240" height="320" as="geometry" />
        </mxCell>
        <mxCell id="Dw3qF6tHwgRVVZFkppPR-90" value="&lt;font style=&quot;font-size: 24px;&quot;&gt;Size&lt;br&gt;&lt;/font&gt;" style="rounded=0;whiteSpace=wrap;html=1;strokeWidth=3;fillColor=#dae8fc;strokeColor=default;" parent="1" vertex="1">
          <mxGeometry x="480" y="160" width="240" height="50" as="geometry" />
        </mxCell>
        <mxCell id="Dw3qF6tHwgRVVZFkppPR-92" value="&lt;font style=&quot;font-size: 24px;&quot;&gt;Next&lt;/font&gt;" style="text;html=1;strokeColor=default;fillColor=#dae8fc;align=center;verticalAlign=middle;whiteSpace=wrap;rounded=0;strokeWidth=3;" parent="1" vertex="1">
          <mxGeometry x="480" y="210" width="240" height="50" as="geometry" />
        </mxCell>
        <mxCell id="Dw3qF6tHwgRVVZFkppPR-93" value="&lt;font style=&quot;font-size: 24px;&quot;&gt;Prev&lt;/font&gt;" style="text;html=1;strokeColor=default;fillColor=#dae8fc;align=center;verticalAlign=middle;whiteSpace=wrap;rounded=0;strokeWidth=3;" parent="1" vertex="1">
          <mxGeometry x="480" y="260" width="240" height="50" as="geometry" />
        </mxCell>
        <mxCell id="Dw3qF6tHwgRVVZFkppPR-94" value="&lt;font style=&quot;font-size: 24px;&quot;&gt;(a) Structure of allocated chunk of memory&lt;br&gt;&lt;/font&gt;" style="text;html=1;strokeColor=none;fillColor=none;align=center;verticalAlign=middle;whiteSpace=wrap;rounded=0;" parent="1" vertex="1">
          <mxGeometry x="50" y="490" width="320" height="50" as="geometry" />
        </mxCell>
        <mxCell id="Dw3qF6tHwgRVVZFkppPR-95" value="&lt;div&gt;&lt;font style=&quot;font-size: 24px;&quot;&gt;(b) Structure of free chunk &lt;br&gt;&lt;/font&gt;&lt;/div&gt;&lt;div&gt;&lt;font style=&quot;font-size: 24px;&quot;&gt;of memory&lt;/font&gt;&lt;/div&gt;" style="text;html=1;strokeColor=none;fillColor=none;align=center;verticalAlign=middle;whiteSpace=wrap;rounded=0;" parent="1" vertex="1">
          <mxGeometry x="440" y="490" width="320" height="50" as="geometry" />
        </mxCell>
        <mxCell id="Dw3qF6tHwgRVVZFkppPR-97" value="" style="rounded=0;whiteSpace=wrap;html=1;strokeWidth=3;fillColor=#ffe6cc;strokeColor=default;" parent="1" vertex="1">
          <mxGeometry x="41" y="867" width="47" height="60" as="geometry" />
        </mxCell>
        <mxCell id="Dw3qF6tHwgRVVZFkppPR-98" value="" style="rounded=0;whiteSpace=wrap;html=1;strokeWidth=3;fillColor=#ffe6cc;strokeColor=default;" parent="1" vertex="1">
          <mxGeometry x="88" y="867" width="47" height="60" as="geometry" />
        </mxCell>
        <mxCell id="Dw3qF6tHwgRVVZFkppPR-100" value="" style="rounded=0;whiteSpace=wrap;html=1;strokeWidth=3;fillColor=#ffe6cc;strokeColor=default;" parent="1" vertex="1">
          <mxGeometry x="180" y="867" width="70" height="60" as="geometry" />
        </mxCell>
        <mxCell id="Dw3qF6tHwgRVVZFkppPR-101" value="" style="rounded=0;whiteSpace=wrap;html=1;strokeWidth=3;fillColor=#e1d5e7;" parent="1" vertex="1">
          <mxGeometry x="280" y="867" width="50" height="60" as="geometry" />
        </mxCell>
        <mxCell id="Dw3qF6tHwgRVVZFkppPR-102" value="" style="rounded=0;whiteSpace=wrap;html=1;strokeWidth=3;fillColor=#e1d5e7;" parent="1" vertex="1">
          <mxGeometry x="330" y="867" width="160" height="60" as="geometry" />
        </mxCell>
        <mxCell id="Dw3qF6tHwgRVVZFkppPR-110" value="&lt;div&gt;&lt;font style=&quot;font-size: 18px;&quot;&gt;Size&lt;/font&gt;&lt;/div&gt;&lt;div&gt;&lt;font style=&quot;font-size: 18px;&quot;&gt;=32&lt;/font&gt;&lt;/div&gt;" style="text;html=1;strokeColor=none;fillColor=none;align=center;verticalAlign=middle;whiteSpace=wrap;rounded=0;" parent="1" vertex="1">
          <mxGeometry x="275" y="883" width="60" height="30" as="geometry" />
        </mxCell>
        <mxCell id="Dw3qF6tHwgRVVZFkppPR-112" value="&lt;div&gt;&lt;font style=&quot;font-size: 18px;&quot;&gt;Size&lt;/font&gt;&lt;/div&gt;&lt;div&gt;&lt;font style=&quot;font-size: 18px;&quot;&gt;=32&lt;/font&gt;&lt;/div&gt;" style="text;html=1;strokeColor=none;fillColor=none;align=center;verticalAlign=middle;whiteSpace=wrap;rounded=0;" parent="1" vertex="1">
          <mxGeometry x="40" y="883" width="48" height="30" as="geometry" />
        </mxCell>
        <mxCell id="Dw3qF6tHwgRVVZFkppPR-116" value="&lt;font style=&quot;font-size: 18px;&quot;&gt;Next&lt;/font&gt;" style="text;html=1;strokeColor=none;fillColor=none;align=center;verticalAlign=middle;whiteSpace=wrap;rounded=0;" parent="1" vertex="1">
          <mxGeometry x="81.5" y="882" width="60" height="30" as="geometry" />
        </mxCell>
        <mxCell id="Dw3qF6tHwgRVVZFkppPR-131" value="&lt;font style=&quot;font-size: 24px;&quot;&gt;(d) Metadata maintenance in memory chunks shown in sub-figure(c)&lt;br&gt;&lt;/font&gt;" style="text;html=1;strokeColor=none;fillColor=none;align=center;verticalAlign=middle;whiteSpace=wrap;rounded=0;" parent="1" vertex="1">
          <mxGeometry x="30" y="1020" width="790" height="50" as="geometry" />
        </mxCell>
        <mxCell id="Dw3qF6tHwgRVVZFkppPR-137" value="" style="rounded=0;whiteSpace=wrap;html=1;strokeWidth=3;fillColor=#ffe6cc;strokeColor=default;" parent="1" vertex="1">
          <mxGeometry x="40" y="615" width="210" height="60" as="geometry" />
        </mxCell>
        <mxCell id="Dw3qF6tHwgRVVZFkppPR-138" value="" style="rounded=0;whiteSpace=wrap;html=1;strokeWidth=3;fillColor=#e1d5e7;" parent="1" vertex="1">
          <mxGeometry x="281" y="615" width="209" height="60" as="geometry" />
        </mxCell>
        <mxCell id="Dw3qF6tHwgRVVZFkppPR-142" value="" style="rounded=0;whiteSpace=wrap;html=1;strokeWidth=3;fillColor=#ffe6cc;strokeColor=default;" parent="1" vertex="1">
          <mxGeometry x="520" y="615" width="270" height="60" as="geometry" />
        </mxCell>
        <mxCell id="Dw3qF6tHwgRVVZFkppPR-161" value="&lt;font style=&quot;font-size: 18px;&quot;&gt;Free memory chunk&lt;/font&gt;" style="text;html=1;strokeColor=none;fillColor=none;align=center;verticalAlign=middle;whiteSpace=wrap;rounded=0;" parent="1" vertex="1">
          <mxGeometry x="56" y="630" width="178" height="30" as="geometry" />
        </mxCell>
        <mxCell id="Dw3qF6tHwgRVVZFkppPR-162" value="&lt;font style=&quot;font-size: 18px;&quot;&gt;Free memory chunk&lt;/font&gt;" style="text;html=1;strokeColor=none;fillColor=none;align=center;verticalAlign=middle;whiteSpace=wrap;rounded=0;" parent="1" vertex="1">
          <mxGeometry x="570" y="630" width="178" height="30" as="geometry" />
        </mxCell>
        <mxCell id="Dw3qF6tHwgRVVZFkppPR-163" value="&lt;font style=&quot;font-size: 18px;&quot;&gt;Allocated memory chunk&lt;/font&gt;" style="text;html=1;strokeColor=none;fillColor=none;align=center;verticalAlign=middle;whiteSpace=wrap;rounded=0;" parent="1" vertex="1">
          <mxGeometry x="280" y="630" width="209.5" height="30" as="geometry" />
        </mxCell>
        <mxCell id="Dw3qF6tHwgRVVZFkppPR-164" value="&lt;font style=&quot;font-size: 24px;&quot;&gt;(c) High level state of memory managed by memalloc()/memfree() &lt;br&gt;&lt;/font&gt;" style="text;html=1;strokeColor=none;fillColor=none;align=center;verticalAlign=middle;whiteSpace=wrap;rounded=0;" parent="1" vertex="1">
          <mxGeometry x="70" y="710" width="710" height="50" as="geometry" />
        </mxCell>
        <mxCell id="Dw3qF6tHwgRVVZFkppPR-165" value="" style="endArrow=classic;html=1;rounded=0;entryX=1;entryY=1;entryDx=0;entryDy=0;strokeWidth=3;" parent="1" target="Dw3qF6tHwgRVVZFkppPR-86" edge="1">
          <mxGeometry width="50" height="50" relative="1" as="geometry">
            <mxPoint x="370" y="260" as="sourcePoint" />
            <mxPoint x="470" y="520" as="targetPoint" />
            <Array as="points">
              <mxPoint x="370" y="210" />
            </Array>
          </mxGeometry>
        </mxCell>
        <mxCell id="Dw3qF6tHwgRVVZFkppPR-166" value="&lt;div&gt;&lt;font style=&quot;font-size: 24px;&quot;&gt;Address &lt;br&gt;&lt;/font&gt;&lt;/div&gt;&lt;div&gt;&lt;font style=&quot;font-size: 24px;&quot;&gt;returned &lt;br&gt;&lt;/font&gt;&lt;/div&gt;&lt;div&gt;&lt;font style=&quot;font-size: 24px;&quot;&gt;by &lt;br&gt;&lt;/font&gt;&lt;/div&gt;&lt;div&gt;&lt;font style=&quot;font-size: 24px;&quot;&gt;&amp;nbsp; memalloc()&lt;br&gt;&lt;/font&gt;&lt;/div&gt;" style="text;html=1;strokeColor=none;fillColor=none;align=center;verticalAlign=middle;whiteSpace=wrap;rounded=0;" parent="1" vertex="1">
          <mxGeometry x="220" y="295" width="320" height="50" as="geometry" />
        </mxCell>
        <mxCell id="GqmXSSIizeDQHD-2Bpkm-3" value="" style="endArrow=classic;startArrow=classic;html=1;rounded=0;exitX=0.217;exitY=0.63;exitDx=0;exitDy=0;exitPerimeter=0;strokeWidth=2;" parent="1" edge="1">
          <mxGeometry width="50" height="50" relative="1" as="geometry">
            <mxPoint x="39.999999999999886" y="689.9999999999999" as="sourcePoint" />
            <mxPoint x="250" y="690" as="targetPoint" />
            <Array as="points">
              <mxPoint x="69.88999999999999" y="690.4" />
            </Array>
          </mxGeometry>
        </mxCell>
        <mxCell id="GqmXSSIizeDQHD-2Bpkm-6" value="&lt;font style=&quot;font-size: 18px;&quot;&gt;32 bytes&lt;/font&gt;" style="text;html=1;strokeColor=none;fillColor=none;align=center;verticalAlign=middle;whiteSpace=wrap;rounded=0;" parent="1" vertex="1">
          <mxGeometry x="107.5" y="690" width="75" height="20" as="geometry" />
        </mxCell>
        <mxCell id="GqmXSSIizeDQHD-2Bpkm-7" value="" style="endArrow=classic;startArrow=classic;html=1;rounded=0;exitX=0.217;exitY=0.63;exitDx=0;exitDy=0;exitPerimeter=0;strokeWidth=2;" parent="1" edge="1">
          <mxGeometry width="50" height="50" relative="1" as="geometry">
            <mxPoint x="280.9999999999999" y="689.9999999999999" as="sourcePoint" />
            <mxPoint x="491" y="690" as="targetPoint" />
            <Array as="points">
              <mxPoint x="310.89" y="690.4" />
            </Array>
          </mxGeometry>
        </mxCell>
        <mxCell id="GqmXSSIizeDQHD-2Bpkm-8" value="&lt;font style=&quot;font-size: 18px;&quot;&gt;32 bytes&lt;/font&gt;" style="text;html=1;strokeColor=none;fillColor=none;align=center;verticalAlign=middle;whiteSpace=wrap;rounded=0;" parent="1" vertex="1">
          <mxGeometry x="348.5" y="690" width="75" height="20" as="geometry" />
        </mxCell>
        <mxCell id="GqmXSSIizeDQHD-2Bpkm-9" value="" style="endArrow=classic;startArrow=classic;html=1;rounded=0;exitX=0.217;exitY=0.63;exitDx=0;exitDy=0;exitPerimeter=0;strokeWidth=2;" parent="1" edge="1">
          <mxGeometry width="50" height="50" relative="1" as="geometry">
            <mxPoint x="519.9999999999999" y="689.9999999999999" as="sourcePoint" />
            <mxPoint x="790" y="690" as="targetPoint" />
            <Array as="points">
              <mxPoint x="549.89" y="690.4" />
            </Array>
          </mxGeometry>
        </mxCell>
        <mxCell id="GqmXSSIizeDQHD-2Bpkm-10" value="&lt;font style=&quot;font-size: 18px;&quot;&gt;40 bytes&lt;/font&gt;" style="text;html=1;strokeColor=none;fillColor=none;align=center;verticalAlign=middle;whiteSpace=wrap;rounded=0;" parent="1" vertex="1">
          <mxGeometry x="625" y="690" width="75" height="20" as="geometry" />
        </mxCell>
        <mxCell id="GqmXSSIizeDQHD-2Bpkm-11" value="" style="endArrow=classic;startArrow=classic;html=1;rounded=0;strokeWidth=2;" parent="1" edge="1">
          <mxGeometry width="50" height="50" relative="1" as="geometry">
            <mxPoint x="729.5" y="210" as="sourcePoint" />
            <mxPoint x="730" y="160" as="targetPoint" />
          </mxGeometry>
        </mxCell>
        <mxCell id="GqmXSSIizeDQHD-2Bpkm-12" value="&lt;font style=&quot;font-size: 18px;&quot;&gt;8 bytes&lt;br&gt;&lt;/font&gt;" style="text;html=1;strokeColor=none;fillColor=none;align=center;verticalAlign=middle;whiteSpace=wrap;rounded=0;" parent="1" vertex="1">
          <mxGeometry x="730" y="170" width="80" height="30" as="geometry" />
        </mxCell>
        <mxCell id="GqmXSSIizeDQHD-2Bpkm-13" value="" style="endArrow=classic;startArrow=classic;html=1;rounded=0;strokeWidth=2;" parent="1" edge="1">
          <mxGeometry width="50" height="50" relative="1" as="geometry">
            <mxPoint x="730" y="260" as="sourcePoint" />
            <mxPoint x="730.5" y="210" as="targetPoint" />
          </mxGeometry>
        </mxCell>
        <mxCell id="GqmXSSIizeDQHD-2Bpkm-14" value="&lt;font style=&quot;font-size: 18px;&quot;&gt;8 bytes&lt;br&gt;&lt;/font&gt;" style="text;html=1;strokeColor=none;fillColor=none;align=center;verticalAlign=middle;whiteSpace=wrap;rounded=0;" parent="1" vertex="1">
          <mxGeometry x="730.5" y="220" width="80" height="30" as="geometry" />
        </mxCell>
        <mxCell id="GqmXSSIizeDQHD-2Bpkm-15" value="" style="endArrow=classic;startArrow=classic;html=1;rounded=0;strokeWidth=2;" parent="1" edge="1">
          <mxGeometry width="50" height="50" relative="1" as="geometry">
            <mxPoint x="730.5" y="310" as="sourcePoint" />
            <mxPoint x="731" y="260" as="targetPoint" />
          </mxGeometry>
        </mxCell>
        <mxCell id="GqmXSSIizeDQHD-2Bpkm-16" value="&lt;font style=&quot;font-size: 18px;&quot;&gt;8 bytes&lt;br&gt;&lt;/font&gt;" style="text;html=1;strokeColor=none;fillColor=none;align=center;verticalAlign=middle;whiteSpace=wrap;rounded=0;" parent="1" vertex="1">
          <mxGeometry x="731" y="270" width="80" height="30" as="geometry" />
        </mxCell>
        <mxCell id="GqmXSSIizeDQHD-2Bpkm-17" value="" style="endArrow=classic;startArrow=classic;html=1;rounded=0;strokeWidth=2;" parent="1" edge="1">
          <mxGeometry width="50" height="50" relative="1" as="geometry">
            <mxPoint x="69.16999999999996" y="210" as="sourcePoint" />
            <mxPoint x="69.66999999999996" y="160" as="targetPoint" />
          </mxGeometry>
        </mxCell>
        <mxCell id="GqmXSSIizeDQHD-2Bpkm-18" value="&lt;font style=&quot;font-size: 18px;&quot;&gt;8 bytes&lt;br&gt;&lt;/font&gt;" style="text;html=1;strokeColor=none;fillColor=none;align=center;verticalAlign=middle;whiteSpace=wrap;rounded=0;" parent="1" vertex="1">
          <mxGeometry y="170" width="75" height="30" as="geometry" />
        </mxCell>
        <mxCell id="GqmXSSIizeDQHD-2Bpkm-19" value="" style="rounded=0;whiteSpace=wrap;html=1;strokeWidth=3;fillColor=#ffe6cc;strokeColor=default;" parent="1" vertex="1">
          <mxGeometry x="135" y="867" width="47" height="60" as="geometry" />
        </mxCell>
        <mxCell id="Dw3qF6tHwgRVVZFkppPR-117" value="&lt;font style=&quot;font-size: 18px;&quot;&gt;Prev&lt;/font&gt;" style="text;html=1;strokeColor=none;fillColor=none;align=center;verticalAlign=middle;whiteSpace=wrap;rounded=0;" parent="1" vertex="1">
          <mxGeometry x="125.5" y="883" width="60" height="30" as="geometry" />
        </mxCell>
        <mxCell id="GqmXSSIizeDQHD-2Bpkm-20" value="" style="rounded=0;whiteSpace=wrap;html=1;strokeWidth=3;fillColor=#ffe6cc;strokeColor=default;" parent="1" vertex="1">
          <mxGeometry x="521" y="867" width="47" height="60" as="geometry" />
        </mxCell>
        <mxCell id="GqmXSSIizeDQHD-2Bpkm-21" value="" style="rounded=0;whiteSpace=wrap;html=1;strokeWidth=3;fillColor=#ffe6cc;strokeColor=default;" parent="1" vertex="1">
          <mxGeometry x="568" y="867" width="47" height="60" as="geometry" />
        </mxCell>
        <mxCell id="GqmXSSIizeDQHD-2Bpkm-22" value="" style="rounded=0;whiteSpace=wrap;html=1;strokeWidth=3;fillColor=#ffe6cc;strokeColor=default;" parent="1" vertex="1">
          <mxGeometry x="660" y="867" width="130" height="60" as="geometry" />
        </mxCell>
        <mxCell id="GqmXSSIizeDQHD-2Bpkm-23" value="&lt;div&gt;&lt;font style=&quot;font-size: 18px;&quot;&gt;Size&lt;/font&gt;&lt;/div&gt;&lt;div&gt;&lt;font style=&quot;font-size: 18px;&quot;&gt;=40&lt;/font&gt;&lt;/div&gt;" style="text;html=1;strokeColor=none;fillColor=none;align=center;verticalAlign=middle;whiteSpace=wrap;rounded=0;" parent="1" vertex="1">
          <mxGeometry x="520" y="883" width="48" height="30" as="geometry" />
        </mxCell>
        <mxCell id="GqmXSSIizeDQHD-2Bpkm-24" value="&lt;font style=&quot;font-size: 18px;&quot;&gt;Next&lt;/font&gt;" style="text;html=1;strokeColor=none;fillColor=none;align=center;verticalAlign=middle;whiteSpace=wrap;rounded=0;" parent="1" vertex="1">
          <mxGeometry x="561.5" y="882" width="60" height="30" as="geometry" />
        </mxCell>
        <mxCell id="GqmXSSIizeDQHD-2Bpkm-25" value="" style="rounded=0;whiteSpace=wrap;html=1;strokeWidth=3;fillColor=#ffe6cc;strokeColor=default;" parent="1" vertex="1">
          <mxGeometry x="615" y="867" width="47" height="60" as="geometry" />
        </mxCell>
        <mxCell id="GqmXSSIizeDQHD-2Bpkm-26" value="&lt;font style=&quot;font-size: 18px;&quot;&gt;Prev&lt;/font&gt;" style="text;html=1;strokeColor=none;fillColor=none;align=center;verticalAlign=middle;whiteSpace=wrap;rounded=0;" parent="1" vertex="1">
          <mxGeometry x="605.5" y="883" width="60" height="30" as="geometry" />
        </mxCell>
        <mxCell id="GqmXSSIizeDQHD-2Bpkm-39" value="" style="endArrow=classic;startArrow=classic;html=1;rounded=0;exitX=0.217;exitY=0.63;exitDx=0;exitDy=0;exitPerimeter=0;strokeWidth=2;" parent="1" edge="1">
          <mxGeometry width="50" height="50" relative="1" as="geometry">
            <mxPoint x="519.9999999999999" y="979.9999999999999" as="sourcePoint" />
            <mxPoint x="790" y="980" as="targetPoint" />
            <Array as="points">
              <mxPoint x="549.89" y="980.4" />
            </Array>
          </mxGeometry>
        </mxCell>
        <mxCell id="GqmXSSIizeDQHD-2Bpkm-40" value="&lt;font style=&quot;font-size: 18px;&quot;&gt;40 bytes&lt;/font&gt;" style="text;html=1;strokeColor=none;fillColor=none;align=center;verticalAlign=middle;whiteSpace=wrap;rounded=0;" parent="1" vertex="1">
          <mxGeometry x="625" y="980" width="75" height="20" as="geometry" />
        </mxCell>
        <mxCell id="GqmXSSIizeDQHD-2Bpkm-47" value="" style="endArrow=classic;startArrow=classic;html=1;rounded=0;exitX=0.217;exitY=0.63;exitDx=0;exitDy=0;exitPerimeter=0;strokeWidth=2;" parent="1" edge="1">
          <mxGeometry width="50" height="50" relative="1" as="geometry">
            <mxPoint x="280.9999999999999" y="979.9999999999999" as="sourcePoint" />
            <mxPoint x="491" y="980" as="targetPoint" />
            <Array as="points">
              <mxPoint x="310.89" y="980.4" />
            </Array>
          </mxGeometry>
        </mxCell>
        <mxCell id="GqmXSSIizeDQHD-2Bpkm-48" value="&lt;font style=&quot;font-size: 18px;&quot;&gt;32 bytes&lt;/font&gt;" style="text;html=1;strokeColor=none;fillColor=none;align=center;verticalAlign=middle;whiteSpace=wrap;rounded=0;" parent="1" vertex="1">
          <mxGeometry x="348.5" y="980" width="75" height="20" as="geometry" />
        </mxCell>
        <mxCell id="GqmXSSIizeDQHD-2Bpkm-49" value="" style="endArrow=classic;startArrow=classic;html=1;rounded=0;exitX=0.217;exitY=0.63;exitDx=0;exitDy=0;exitPerimeter=0;strokeWidth=2;" parent="1" edge="1">
          <mxGeometry width="50" height="50" relative="1" as="geometry">
            <mxPoint x="40.999999999999886" y="979.9999999999999" as="sourcePoint" />
            <mxPoint x="251" y="980" as="targetPoint" />
            <Array as="points">
              <mxPoint x="70.88999999999999" y="980.4" />
            </Array>
          </mxGeometry>
        </mxCell>
        <mxCell id="GqmXSSIizeDQHD-2Bpkm-50" value="&lt;font style=&quot;font-size: 18px;&quot;&gt;32 bytes&lt;/font&gt;" style="text;html=1;strokeColor=none;fillColor=none;align=center;verticalAlign=middle;whiteSpace=wrap;rounded=0;" parent="1" vertex="1">
          <mxGeometry x="108.5" y="980" width="75" height="20" as="geometry" />
        </mxCell>
        <mxCell id="RUJHoAeD7lVLXOQXWL_U-2" value="" style="endArrow=classic;html=1;rounded=0;strokeWidth=2;dashed=1;dashPattern=1 1;exitX=0.5;exitY=0;exitDx=0;exitDy=0;entryX=0.5;entryY=0;entryDx=0;entryDy=0;" edge="1" parent="1" source="Dw3qF6tHwgRVVZFkppPR-98" target="GqmXSSIizeDQHD-2Bpkm-20">
          <mxGeometry width="50" height="50" relative="1" as="geometry">
            <mxPoint x="400" y="900" as="sourcePoint" />
            <mxPoint x="450" y="850" as="targetPoint" />
            <Array as="points">
              <mxPoint x="112" y="830" />
              <mxPoint x="545" y="830" />
            </Array>
          </mxGeometry>
        </mxCell>
        <mxCell id="RUJHoAeD7lVLXOQXWL_U-5" value="" style="endArrow=classic;html=1;rounded=0;strokeWidth=2;entryX=0.5;entryY=1;entryDx=0;entryDy=0;dashed=1;dashPattern=1 1;" edge="1" parent="1" target="Dw3qF6tHwgRVVZFkppPR-97">
          <mxGeometry width="50" height="50" relative="1" as="geometry">
            <mxPoint x="640" y="930" as="sourcePoint" />
            <mxPoint x="450" y="850" as="targetPoint" />
            <Array as="points">
              <mxPoint x="640" y="960" />
              <mxPoint x="65" y="960" />
            </Array>
          </mxGeometry>
        </mxCell>
      </root>
    </mxGraphModel>
  </diagram>
</mxfile>
